# xmcd
# 
# Track frame offsets:
#     150
#     14737
#     25913
#     42781
#     53622
#     64790
#     78129
#     91499
#     106475
#     117899
#     135150
#     149768
#     161207
#     173552
#     186773
# 
# Disc length: 2628
# 
# Revision: 0
# Processed by: cddbd v1.5.2PL0 Copyright (c) Steve Scherf et al.
# Submitted via: fre:ac v1.0.31
# 
DISCID=c40a420f
DTITLE=Luis Mariano - 30 Grandes de Mariano CD2
DYEAR=2014
DGENRE=Folk
TTITLE0=Mama la Mas Bella del Mundo
TTITLE1=Gitana
TTITLE2=Andalucia
TTITLE3=Callecita de Mi Novia
TTITLE4=C'est magnifique
TTITLE5=Acércate Mas
TTITLE6=Bulerías de Figaro
TTITLE7=Andalucía Mía
TTITLE8=Maria Luisa
TTITLE9=Mexico
TTITLE10=Doce Cascabeles
TTITLE11=Lima
TTITLE12=Milagro de Paris
TTITLE13=El Relicario
TTITLE14=Valencia
EXTD=
EXTT0=
EXTT1=
EXTT2=
EXTT3=
EXTT4=
EXTT5=
EXTT6=
EXTT7=
EXTT8=
EXTT9=
EXTT10=
EXTT11=
EXTT12=
EXTT13=
EXTT14=
PLAYORDER=
